<svg xmlns="http://www.w3.org/2000/svg" viewBox="0 0 24 24">
  <!-- Hearth mark — V1 "the earth holds the fire" (locked 2026-07-11).
       Juniper heart (#2f5d4c) holding the clementine flame (#ef6c33).
       Never simplify to a plain heart; never recolour the pair to a single
       warm tone (differentiation from hearthapp.ca depends on the green). -->
  <path fill="#2f5d4c" d="M12 20.4C6.6 16 4 12.8 4 9.6 4 7.1 5.9 5.3 8.3 5.3c1.5 0 2.8.7 3.7 1.9.9-1.2 2.2-1.9 3.7-1.9 2.4 0 4.3 1.8 4.3 4.3 0 3.2-2.6 6.4-8 10.8z"/>
  <path fill="#ef6c33" d="M12 15.8c1.3 0 2.3-.9 2.3-2.2 0-1.4-1.2-2-2.3-3.9-1.1 1.9-2.3 2.5-2.3 3.9 0 1.3 1 2.2 2.3 2.2z"/>
</svg>
