<svg xmlns="http://www.w3.org/2000/svg" viewBox="0 0 24 24">
  <!-- Hearth mark — the production heart-flame (heart with a flame cutout,
       clementine gradient). Flame redrawn Build 89 as a TRUE flame (asymmetric,
       flicked tip, side tongue) — the original symmetric teardrop read as a
       blood drop. Matches src/components/logo.tsx. Never simplify to a plain
       heart — the identity lives in the cutout. -->
  <defs>
    <linearGradient id="hearth-heartflame-file" x1="0" y1="0" x2="0" y2="1">
      <stop offset="0" stop-color="#f2a172"/>
      <stop offset="0.55" stop-color="#ef6c33"/>
      <stop offset="1" stop-color="#c14e1d"/>
    </linearGradient>
  </defs>
  <path fill="url(#hearth-heartflame-file)" fill-rule="evenodd" clip-rule="evenodd" d="M12 20.4C6.6 16 4 12.8 4 9.6 4 7.1 5.9 5.3 8.3 5.3c1.5 0 2.8.7 3.7 1.9.9-1.2 2.2-1.9 3.7-1.9 2.4 0 4.3 1.8 4.3 4.3 0 3.2-2.6 6.4-8 10.8zM12 16.4c-1.45 0-2.5-.95-2.5-2.35 0-.95.5-1.7 1.05-2.5.55-.8 1.05-1.75.85-2.95 1.15 1.05 1.75 2.2 1.6 3.4.6-.3.95-.85 1-1.65.5 1.1.5 2.5.5 3.7 0 1.4-1.05 2.35-2.5 2.35z"/>
</svg>
