<svg xmlns="http://www.w3.org/2000/svg" viewBox="0 0 45 45" shape-rendering="crispEdges">
  <!-- Hearth QR — https://www.myhearthapp.ca/practitioners (EC level H; centre tile covers ~6%, scan-verified) -->
  <rect width="45" height="45" fill="#ffffff"/>
  <g fill="#2f5d4c"><rect x="4" y="4" width="1" height="1"/><rect x="5" y="4" width="1" height="1"/><rect x="6" y="4" width="1" height="1"/><rect x="7" y="4" width="1" height="1"/><rect x="8" y="4" width="1" height="1"/><rect x="9" y="4" width="1" height="1"/><rect x="10" y="4" width="1" height="1"/><rect x="12" y="4" width="1" height="1"/><rect x="17" y="4" width="1" height="1"/><rect x="20" y="4" width="1" height="1"/><rect x="21" y="4" width="1" height="1"/><rect x="25" y="4" width="1" height="1"/><rect x="27" y="4" width="1" height="1"/><rect x="30" y="4" width="1" height="1"/><rect x="32" y="4" width="1" height="1"/><rect x="34" y="4" width="1" height="1"/><rect x="35" y="4" width="1" height="1"/><rect x="36" y="4" width="1" height="1"/><rect x="37" y="4" width="1" height="1"/><rect x="38" y="4" width="1" height="1"/><rect x="39" y="4" width="1" height="1"/><rect x="40" y="4" width="1" height="1"/><rect x="4" y="5" width="1" height="1"/><rect x="10" y="5" width="1" height="1"/><rect x="12" y="5" width="1" height="1"/><rect x="14" y="5" width="1" height="1"/><rect x="15" y="5" width="1" height="1"/><rect x="17" y="5" width="1" height="1"/><rect x="19" y="5" width="1" height="1"/><rect x="20" y="5" width="1" height="1"/><rect x="23" y="5" width="1" height="1"/><rect x="24" y="5" width="1" height="1"/><rect x="25" y="5" width="1" height="1"/><rect x="27" y="5" width="1" height="1"/><rect x="29" y="5" width="1" height="1"/><rect x="31" y="5" width="1" height="1"/><rect x="34" y="5" width="1" height="1"/><rect x="40" y="5" width="1" height="1"/><rect x="4" y="6" width="1" height="1"/><rect x="6" y="6" width="1" height="1"/><rect x="7" y="6" width="1" height="1"/><rect x="8" y="6" width="1" height="1"/><rect x="10" y="6" width="1" height="1"/><rect x="12" y="6" width="1" height="1"/><rect x="14" y="6" width="1" height="1"/><rect x="19" y="6" width="1" height="1"/><rect x="20" y="6" width="1" height="1"/><rect x="22" y="6" width="1" height="1"/><rect x="23" y="6" width="1" height="1"/><rect x="24" y="6" width="1" height="1"/><rect x="25" y="6" width="1" height="1"/><rect x="28" y="6" width="1" height="1"/><rect x="34" y="6" width="1" height="1"/><rect x="36" y="6" width="1" height="1"/><rect x="37" y="6" width="1" height="1"/><rect x="38" y="6" width="1" height="1"/><rect x="40" y="6" width="1" height="1"/><rect x="4" y="7" width="1" height="1"/><rect x="6" y="7" width="1" height="1"/><rect x="7" y="7" width="1" height="1"/><rect x="8" y="7" width="1" height="1"/><rect x="10" y="7" width="1" height="1"/><rect x="13" y="7" width="1" height="1"/><rect x="14" y="7" width="1" height="1"/><rect x="20" y="7" width="1" height="1"/><rect x="21" y="7" width="1" height="1"/><rect x="24" y="7" width="1" height="1"/><rect x="29" y="7" width="1" height="1"/><rect x="30" y="7" width="1" height="1"/><rect x="31" y="7" width="1" height="1"/><rect x="34" y="7" width="1" height="1"/><rect x="36" y="7" width="1" height="1"/><rect x="37" y="7" width="1" height="1"/><rect x="38" y="7" width="1" height="1"/><rect x="40" y="7" width="1" height="1"/><rect x="4" y="8" width="1" height="1"/><rect x="6" y="8" width="1" height="1"/><rect x="7" y="8" width="1" height="1"/><rect x="8" y="8" width="1" height="1"/><rect x="10" y="8" width="1" height="1"/><rect x="13" y="8" width="1" height="1"/><rect x="14" y="8" width="1" height="1"/><rect x="15" y="8" width="1" height="1"/><rect x="21" y="8" width="1" height="1"/><rect x="22" y="8" width="1" height="1"/><rect x="23" y="8" width="1" height="1"/><rect x="24" y="8" width="1" height="1"/><rect x="25" y="8" width="1" height="1"/><rect x="29" y="8" width="1" height="1"/><rect x="34" y="8" width="1" height="1"/><rect x="36" y="8" width="1" height="1"/><rect x="37" y="8" width="1" height="1"/><rect x="38" y="8" width="1" height="1"/><rect x="40" y="8" width="1" height="1"/><rect x="4" y="9" width="1" height="1"/><rect x="10" y="9" width="1" height="1"/><rect x="12" y="9" width="1" height="1"/><rect x="13" y="9" width="1" height="1"/><rect x="15" y="9" width="1" height="1"/><rect x="17" y="9" width="1" height="1"/><rect x="18" y="9" width="1" height="1"/><rect x="19" y="9" width="1" height="1"/><rect x="20" y="9" width="1" height="1"/><rect x="23" y="9" width="1" height="1"/><rect x="24" y="9" width="1" height="1"/><rect x="25" y="9" width="1" height="1"/><rect x="27" y="9" width="1" height="1"/><rect x="28" y="9" width="1" height="1"/><rect x="29" y="9" width="1" height="1"/><rect x="30" y="9" width="1" height="1"/><rect x="31" y="9" width="1" height="1"/><rect x="32" y="9" width="1" height="1"/><rect x="34" y="9" width="1" height="1"/><rect x="40" y="9" width="1" height="1"/><rect x="4" y="10" width="1" height="1"/><rect x="5" y="10" width="1" height="1"/><rect x="6" y="10" width="1" height="1"/><rect x="7" y="10" width="1" height="1"/><rect x="8" y="10" width="1" height="1"/><rect x="9" y="10" width="1" height="1"/><rect x="10" y="10" width="1" height="1"/><rect x="12" y="10" width="1" height="1"/><rect x="14" y="10" width="1" height="1"/><rect x="16" y="10" width="1" height="1"/><rect x="18" y="10" width="1" height="1"/><rect x="20" y="10" width="1" height="1"/><rect x="22" y="10" width="1" height="1"/><rect x="24" y="10" width="1" height="1"/><rect x="26" y="10" width="1" height="1"/><rect x="28" y="10" width="1" height="1"/><rect x="30" y="10" width="1" height="1"/><rect x="32" y="10" width="1" height="1"/><rect x="34" y="10" width="1" height="1"/><rect x="35" y="10" width="1" height="1"/><rect x="36" y="10" width="1" height="1"/><rect x="37" y="10" width="1" height="1"/><rect x="38" y="10" width="1" height="1"/><rect x="39" y="10" width="1" height="1"/><rect x="40" y="10" width="1" height="1"/><rect x="12" y="11" width="1" height="1"/><rect x="13" y="11" width="1" height="1"/><rect x="14" y="11" width="1" height="1"/><rect x="15" y="11" width="1" height="1"/><rect x="16" y="11" width="1" height="1"/><rect x="17" y="11" width="1" height="1"/><rect x="18" y="11" width="1" height="1"/><rect x="22" y="11" width="1" height="1"/><rect x="23" y="11" width="1" height="1"/><rect x="24" y="11" width="1" height="1"/><rect x="26" y="11" width="1" height="1"/><rect x="29" y="11" width="1" height="1"/><rect x="32" y="11" width="1" height="1"/><rect x="6" y="12" width="1" height="1"/><rect x="7" y="12" width="1" height="1"/><rect x="8" y="12" width="1" height="1"/><rect x="10" y="12" width="1" height="1"/><rect x="12" y="12" width="1" height="1"/><rect x="13" y="12" width="1" height="1"/><rect x="14" y="12" width="1" height="1"/><rect x="15" y="12" width="1" height="1"/><rect x="16" y="12" width="1" height="1"/><rect x="18" y="12" width="1" height="1"/><rect x="19" y="12" width="1" height="1"/><rect x="20" y="12" width="1" height="1"/><rect x="25" y="12" width="1" height="1"/><rect x="26" y="12" width="1" height="1"/><rect x="27" y="12" width="1" height="1"/><rect x="28" y="12" width="1" height="1"/><rect x="30" y="12" width="1" height="1"/><rect x="33" y="12" width="1" height="1"/><rect x="34" y="12" width="1" height="1"/><rect x="35" y="12" width="1" height="1"/><rect x="38" y="12" width="1" height="1"/><rect x="39" y="12" width="1" height="1"/><rect x="40" y="12" width="1" height="1"/><rect x="4" y="13" width="1" height="1"/><rect x="9" y="13" width="1" height="1"/><rect x="14" y="13" width="1" height="1"/><rect x="15" y="13" width="1" height="1"/><rect x="20" y="13" width="1" height="1"/><rect x="21" y="13" width="1" height="1"/><rect x="22" y="13" width="1" height="1"/><rect x="25" y="13" width="1" height="1"/><rect x="29" y="13" width="1" height="1"/><rect x="31" y="13" width="1" height="1"/><rect x="35" y="13" width="1" height="1"/><rect x="39" y="13" width="1" height="1"/><rect x="6" y="14" width="1" height="1"/><rect x="7" y="14" width="1" height="1"/><rect x="8" y="14" width="1" height="1"/><rect x="10" y="14" width="1" height="1"/><rect x="13" y="14" width="1" height="1"/><rect x="16" y="14" width="1" height="1"/><rect x="17" y="14" width="1" height="1"/><rect x="18" y="14" width="1" height="1"/><rect x="23" y="14" width="1" height="1"/><rect x="24" y="14" width="1" height="1"/><rect x="25" y="14" width="1" height="1"/><rect x="29" y="14" width="1" height="1"/><rect x="30" y="14" width="1" height="1"/><rect x="31" y="14" width="1" height="1"/><rect x="32" y="14" width="1" height="1"/><rect x="34" y="14" width="1" height="1"/><rect x="36" y="14" width="1" height="1"/><rect x="37" y="14" width="1" height="1"/><rect x="39" y="14" width="1" height="1"/><rect x="40" y="14" width="1" height="1"/><rect x="4" y="15" width="1" height="1"/><rect x="13" y="15" width="1" height="1"/><rect x="15" y="15" width="1" height="1"/><rect x="16" y="15" width="1" height="1"/><rect x="18" y="15" width="1" height="1"/><rect x="19" y="15" width="1" height="1"/><rect x="20" y="15" width="1" height="1"/><rect x="21" y="15" width="1" height="1"/><rect x="22" y="15" width="1" height="1"/><rect x="24" y="15" width="1" height="1"/><rect x="26" y="15" width="1" height="1"/><rect x="27" y="15" width="1" height="1"/><rect x="30" y="15" width="1" height="1"/><rect x="34" y="15" width="1" height="1"/><rect x="35" y="15" width="1" height="1"/><rect x="36" y="15" width="1" height="1"/><rect x="40" y="15" width="1" height="1"/><rect x="4" y="16" width="1" height="1"/><rect x="6" y="16" width="1" height="1"/><rect x="7" y="16" width="1" height="1"/><rect x="8" y="16" width="1" height="1"/><rect x="10" y="16" width="1" height="1"/><rect x="12" y="16" width="1" height="1"/><rect x="16" y="16" width="1" height="1"/><rect x="21" y="16" width="1" height="1"/><rect x="23" y="16" width="1" height="1"/><rect x="25" y="16" width="1" height="1"/><rect x="26" y="16" width="1" height="1"/><rect x="27" y="16" width="1" height="1"/><rect x="28" y="16" width="1" height="1"/><rect x="29" y="16" width="1" height="1"/><rect x="30" y="16" width="1" height="1"/><rect x="31" y="16" width="1" height="1"/><rect x="32" y="16" width="1" height="1"/><rect x="33" y="16" width="1" height="1"/><rect x="34" y="16" width="1" height="1"/><rect x="36" y="16" width="1" height="1"/><rect x="37" y="16" width="1" height="1"/><rect x="38" y="16" width="1" height="1"/><rect x="40" y="16" width="1" height="1"/><rect x="5" y="17" width="1" height="1"/><rect x="6" y="17" width="1" height="1"/><rect x="7" y="17" width="1" height="1"/><rect x="8" y="17" width="1" height="1"/><rect x="9" y="17" width="1" height="1"/><rect x="12" y="17" width="1" height="1"/><rect x="13" y="17" width="1" height="1"/><rect x="16" y="17" width="1" height="1"/><rect x="17" y="17" width="1" height="1"/><rect x="19" y="17" width="1" height="1"/><rect x="20" y="17" width="1" height="1"/><rect x="21" y="17" width="1" height="1"/><rect x="22" y="17" width="1" height="1"/><rect x="25" y="17" width="1" height="1"/><rect x="28" y="17" width="1" height="1"/><rect x="30" y="17" width="1" height="1"/><rect x="32" y="17" width="1" height="1"/><rect x="33" y="17" width="1" height="1"/><rect x="35" y="17" width="1" height="1"/><rect x="37" y="17" width="1" height="1"/><rect x="38" y="17" width="1" height="1"/><rect x="7" y="18" width="1" height="1"/><rect x="10" y="18" width="1" height="1"/><rect x="11" y="18" width="1" height="1"/><rect x="12" y="18" width="1" height="1"/><rect x="14" y="18" width="1" height="1"/><rect x="15" y="18" width="1" height="1"/><rect x="17" y="18" width="1" height="1"/><rect x="27" y="18" width="1" height="1"/><rect x="28" y="18" width="1" height="1"/><rect x="30" y="18" width="1" height="1"/><rect x="31" y="18" width="1" height="1"/><rect x="35" y="18" width="1" height="1"/><rect x="36" y="18" width="1" height="1"/><rect x="37" y="18" width="1" height="1"/><rect x="40" y="18" width="1" height="1"/><rect x="5" y="19" width="1" height="1"/><rect x="7" y="19" width="1" height="1"/><rect x="8" y="19" width="1" height="1"/><rect x="11" y="19" width="1" height="1"/><rect x="12" y="19" width="1" height="1"/><rect x="13" y="19" width="1" height="1"/><rect x="14" y="19" width="1" height="1"/><rect x="16" y="19" width="1" height="1"/><rect x="17" y="19" width="1" height="1"/><rect x="28" y="19" width="1" height="1"/><rect x="31" y="19" width="1" height="1"/><rect x="34" y="19" width="1" height="1"/><rect x="39" y="19" width="1" height="1"/><rect x="5" y="20" width="1" height="1"/><rect x="8" y="20" width="1" height="1"/><rect x="9" y="20" width="1" height="1"/><rect x="10" y="20" width="1" height="1"/><rect x="14" y="20" width="1" height="1"/><rect x="16" y="20" width="1" height="1"/><rect x="17" y="20" width="1" height="1"/><rect x="28" y="20" width="1" height="1"/><rect x="29" y="20" width="1" height="1"/><rect x="30" y="20" width="1" height="1"/><rect x="31" y="20" width="1" height="1"/><rect x="32" y="20" width="1" height="1"/><rect x="33" y="20" width="1" height="1"/><rect x="34" y="20" width="1" height="1"/><rect x="36" y="20" width="1" height="1"/><rect x="38" y="20" width="1" height="1"/><rect x="39" y="20" width="1" height="1"/><rect x="40" y="20" width="1" height="1"/><rect x="5" y="21" width="1" height="1"/><rect x="7" y="21" width="1" height="1"/><rect x="8" y="21" width="1" height="1"/><rect x="11" y="21" width="1" height="1"/><rect x="13" y="21" width="1" height="1"/><rect x="14" y="21" width="1" height="1"/><rect x="16" y="21" width="1" height="1"/><rect x="27" y="21" width="1" height="1"/><rect x="28" y="21" width="1" height="1"/><rect x="32" y="21" width="1" height="1"/><rect x="35" y="21" width="1" height="1"/><rect x="38" y="21" width="1" height="1"/><rect x="4" y="22" width="1" height="1"/><rect x="5" y="22" width="1" height="1"/><rect x="6" y="22" width="1" height="1"/><rect x="8" y="22" width="1" height="1"/><rect x="10" y="22" width="1" height="1"/><rect x="12" y="22" width="1" height="1"/><rect x="13" y="22" width="1" height="1"/><rect x="17" y="22" width="1" height="1"/><rect x="31" y="22" width="1" height="1"/><rect x="32" y="22" width="1" height="1"/><rect x="34" y="22" width="1" height="1"/><rect x="35" y="22" width="1" height="1"/><rect x="37" y="22" width="1" height="1"/><rect x="38" y="22" width="1" height="1"/><rect x="39" y="22" width="1" height="1"/><rect x="40" y="22" width="1" height="1"/><rect x="4" y="23" width="1" height="1"/><rect x="6" y="23" width="1" height="1"/><rect x="7" y="23" width="1" height="1"/><rect x="8" y="23" width="1" height="1"/><rect x="11" y="23" width="1" height="1"/><rect x="13" y="23" width="1" height="1"/><rect x="14" y="23" width="1" height="1"/><rect x="27" y="23" width="1" height="1"/><rect x="28" y="23" width="1" height="1"/><rect x="30" y="23" width="1" height="1"/><rect x="31" y="23" width="1" height="1"/><rect x="33" y="23" width="1" height="1"/><rect x="34" y="23" width="1" height="1"/><rect x="36" y="23" width="1" height="1"/><rect x="40" y="23" width="1" height="1"/><rect x="6" y="24" width="1" height="1"/><rect x="8" y="24" width="1" height="1"/><rect x="10" y="24" width="1" height="1"/><rect x="11" y="24" width="1" height="1"/><rect x="12" y="24" width="1" height="1"/><rect x="13" y="24" width="1" height="1"/><rect x="15" y="24" width="1" height="1"/><rect x="16" y="24" width="1" height="1"/><rect x="29" y="24" width="1" height="1"/><rect x="30" y="24" width="1" height="1"/><rect x="31" y="24" width="1" height="1"/><rect x="34" y="24" width="1" height="1"/><rect x="35" y="24" width="1" height="1"/><rect x="36" y="24" width="1" height="1"/><rect x="37" y="24" width="1" height="1"/><rect x="38" y="24" width="1" height="1"/><rect x="4" y="25" width="1" height="1"/><rect x="5" y="25" width="1" height="1"/><rect x="8" y="25" width="1" height="1"/><rect x="15" y="25" width="1" height="1"/><rect x="28" y="25" width="1" height="1"/><rect x="35" y="25" width="1" height="1"/><rect x="37" y="25" width="1" height="1"/><rect x="39" y="25" width="1" height="1"/><rect x="6" y="26" width="1" height="1"/><rect x="8" y="26" width="1" height="1"/><rect x="10" y="26" width="1" height="1"/><rect x="11" y="26" width="1" height="1"/><rect x="13" y="26" width="1" height="1"/><rect x="14" y="26" width="1" height="1"/><rect x="15" y="26" width="1" height="1"/><rect x="16" y="26" width="1" height="1"/><rect x="27" y="26" width="1" height="1"/><rect x="28" y="26" width="1" height="1"/><rect x="31" y="26" width="1" height="1"/><rect x="33" y="26" width="1" height="1"/><rect x="34" y="26" width="1" height="1"/><rect x="37" y="26" width="1" height="1"/><rect x="39" y="26" width="1" height="1"/><rect x="40" y="26" width="1" height="1"/><rect x="4" y="27" width="1" height="1"/><rect x="6" y="27" width="1" height="1"/><rect x="8" y="27" width="1" height="1"/><rect x="9" y="27" width="1" height="1"/><rect x="11" y="27" width="1" height="1"/><rect x="12" y="27" width="1" height="1"/><rect x="17" y="27" width="1" height="1"/><rect x="18" y="27" width="1" height="1"/><rect x="19" y="27" width="1" height="1"/><rect x="22" y="27" width="1" height="1"/><rect x="23" y="27" width="1" height="1"/><rect x="26" y="27" width="1" height="1"/><rect x="28" y="27" width="1" height="1"/><rect x="30" y="27" width="1" height="1"/><rect x="33" y="27" width="1" height="1"/><rect x="34" y="27" width="1" height="1"/><rect x="35" y="27" width="1" height="1"/><rect x="37" y="27" width="1" height="1"/><rect x="39" y="27" width="1" height="1"/><rect x="40" y="27" width="1" height="1"/><rect x="4" y="28" width="1" height="1"/><rect x="5" y="28" width="1" height="1"/><rect x="9" y="28" width="1" height="1"/><rect x="10" y="28" width="1" height="1"/><rect x="12" y="28" width="1" height="1"/><rect x="16" y="28" width="1" height="1"/><rect x="21" y="28" width="1" height="1"/><rect x="22" y="28" width="1" height="1"/><rect x="23" y="28" width="1" height="1"/><rect x="25" y="28" width="1" height="1"/><rect x="32" y="28" width="1" height="1"/><rect x="33" y="28" width="1" height="1"/><rect x="34" y="28" width="1" height="1"/><rect x="36" y="28" width="1" height="1"/><rect x="37" y="28" width="1" height="1"/><rect x="38" y="28" width="1" height="1"/><rect x="4" y="29" width="1" height="1"/><rect x="5" y="29" width="1" height="1"/><rect x="8" y="29" width="1" height="1"/><rect x="9" y="29" width="1" height="1"/><rect x="11" y="29" width="1" height="1"/><rect x="12" y="29" width="1" height="1"/><rect x="13" y="29" width="1" height="1"/><rect x="16" y="29" width="1" height="1"/><rect x="19" y="29" width="1" height="1"/><rect x="20" y="29" width="1" height="1"/><rect x="22" y="29" width="1" height="1"/><rect x="25" y="29" width="1" height="1"/><rect x="26" y="29" width="1" height="1"/><rect x="28" y="29" width="1" height="1"/><rect x="30" y="29" width="1" height="1"/><rect x="32" y="29" width="1" height="1"/><rect x="33" y="29" width="1" height="1"/><rect x="35" y="29" width="1" height="1"/><rect x="37" y="29" width="1" height="1"/><rect x="38" y="29" width="1" height="1"/><rect x="39" y="29" width="1" height="1"/><rect x="4" y="30" width="1" height="1"/><rect x="6" y="30" width="1" height="1"/><rect x="7" y="30" width="1" height="1"/><rect x="8" y="30" width="1" height="1"/><rect x="10" y="30" width="1" height="1"/><rect x="11" y="30" width="1" height="1"/><rect x="16" y="30" width="1" height="1"/><rect x="19" y="30" width="1" height="1"/><rect x="20" y="30" width="1" height="1"/><rect x="29" y="30" width="1" height="1"/><rect x="30" y="30" width="1" height="1"/><rect x="31" y="30" width="1" height="1"/><rect x="34" y="30" width="1" height="1"/><rect x="35" y="30" width="1" height="1"/><rect x="36" y="30" width="1" height="1"/><rect x="39" y="30" width="1" height="1"/><rect x="40" y="30" width="1" height="1"/><rect x="4" y="31" width="1" height="1"/><rect x="7" y="31" width="1" height="1"/><rect x="8" y="31" width="1" height="1"/><rect x="12" y="31" width="1" height="1"/><rect x="13" y="31" width="1" height="1"/><rect x="15" y="31" width="1" height="1"/><rect x="16" y="31" width="1" height="1"/><rect x="19" y="31" width="1" height="1"/><rect x="21" y="31" width="1" height="1"/><rect x="22" y="31" width="1" height="1"/><rect x="24" y="31" width="1" height="1"/><rect x="26" y="31" width="1" height="1"/><rect x="28" y="31" width="1" height="1"/><rect x="30" y="31" width="1" height="1"/><rect x="33" y="31" width="1" height="1"/><rect x="35" y="31" width="1" height="1"/><rect x="36" y="31" width="1" height="1"/><rect x="39" y="31" width="1" height="1"/><rect x="40" y="31" width="1" height="1"/><rect x="4" y="32" width="1" height="1"/><rect x="6" y="32" width="1" height="1"/><rect x="8" y="32" width="1" height="1"/><rect x="10" y="32" width="1" height="1"/><rect x="12" y="32" width="1" height="1"/><rect x="13" y="32" width="1" height="1"/><rect x="15" y="32" width="1" height="1"/><rect x="16" y="32" width="1" height="1"/><rect x="17" y="32" width="1" height="1"/><rect x="19" y="32" width="1" height="1"/><rect x="20" y="32" width="1" height="1"/><rect x="22" y="32" width="1" height="1"/><rect x="28" y="32" width="1" height="1"/><rect x="29" y="32" width="1" height="1"/><rect x="30" y="32" width="1" height="1"/><rect x="31" y="32" width="1" height="1"/><rect x="32" y="32" width="1" height="1"/><rect x="33" y="32" width="1" height="1"/><rect x="34" y="32" width="1" height="1"/><rect x="35" y="32" width="1" height="1"/><rect x="36" y="32" width="1" height="1"/><rect x="37" y="32" width="1" height="1"/><rect x="38" y="32" width="1" height="1"/><rect x="40" y="32" width="1" height="1"/><rect x="12" y="33" width="1" height="1"/><rect x="13" y="33" width="1" height="1"/><rect x="14" y="33" width="1" height="1"/><rect x="15" y="33" width="1" height="1"/><rect x="18" y="33" width="1" height="1"/><rect x="19" y="33" width="1" height="1"/><rect x="23" y="33" width="1" height="1"/><rect x="25" y="33" width="1" height="1"/><rect x="26" y="33" width="1" height="1"/><rect x="27" y="33" width="1" height="1"/><rect x="29" y="33" width="1" height="1"/><rect x="30" y="33" width="1" height="1"/><rect x="32" y="33" width="1" height="1"/><rect x="36" y="33" width="1" height="1"/><rect x="39" y="33" width="1" height="1"/><rect x="4" y="34" width="1" height="1"/><rect x="5" y="34" width="1" height="1"/><rect x="6" y="34" width="1" height="1"/><rect x="7" y="34" width="1" height="1"/><rect x="8" y="34" width="1" height="1"/><rect x="9" y="34" width="1" height="1"/><rect x="10" y="34" width="1" height="1"/><rect x="13" y="34" width="1" height="1"/><rect x="14" y="34" width="1" height="1"/><rect x="25" y="34" width="1" height="1"/><rect x="26" y="34" width="1" height="1"/><rect x="28" y="34" width="1" height="1"/><rect x="32" y="34" width="1" height="1"/><rect x="34" y="34" width="1" height="1"/><rect x="36" y="34" width="1" height="1"/><rect x="37" y="34" width="1" height="1"/><rect x="39" y="34" width="1" height="1"/><rect x="40" y="34" width="1" height="1"/><rect x="4" y="35" width="1" height="1"/><rect x="10" y="35" width="1" height="1"/><rect x="14" y="35" width="1" height="1"/><rect x="15" y="35" width="1" height="1"/><rect x="17" y="35" width="1" height="1"/><rect x="19" y="35" width="1" height="1"/><rect x="21" y="35" width="1" height="1"/><rect x="22" y="35" width="1" height="1"/><rect x="23" y="35" width="1" height="1"/><rect x="26" y="35" width="1" height="1"/><rect x="32" y="35" width="1" height="1"/><rect x="36" y="35" width="1" height="1"/><rect x="39" y="35" width="1" height="1"/><rect x="4" y="36" width="1" height="1"/><rect x="6" y="36" width="1" height="1"/><rect x="7" y="36" width="1" height="1"/><rect x="8" y="36" width="1" height="1"/><rect x="10" y="36" width="1" height="1"/><rect x="12" y="36" width="1" height="1"/><rect x="14" y="36" width="1" height="1"/><rect x="15" y="36" width="1" height="1"/><rect x="16" y="36" width="1" height="1"/><rect x="17" y="36" width="1" height="1"/><rect x="20" y="36" width="1" height="1"/><rect x="21" y="36" width="1" height="1"/><rect x="22" y="36" width="1" height="1"/><rect x="23" y="36" width="1" height="1"/><rect x="26" y="36" width="1" height="1"/><rect x="28" y="36" width="1" height="1"/><rect x="29" y="36" width="1" height="1"/><rect x="30" y="36" width="1" height="1"/><rect x="31" y="36" width="1" height="1"/><rect x="32" y="36" width="1" height="1"/><rect x="33" y="36" width="1" height="1"/><rect x="34" y="36" width="1" height="1"/><rect x="35" y="36" width="1" height="1"/><rect x="36" y="36" width="1" height="1"/><rect x="38" y="36" width="1" height="1"/><rect x="39" y="36" width="1" height="1"/><rect x="40" y="36" width="1" height="1"/><rect x="4" y="37" width="1" height="1"/><rect x="6" y="37" width="1" height="1"/><rect x="7" y="37" width="1" height="1"/><rect x="8" y="37" width="1" height="1"/><rect x="10" y="37" width="1" height="1"/><rect x="12" y="37" width="1" height="1"/><rect x="13" y="37" width="1" height="1"/><rect x="14" y="37" width="1" height="1"/><rect x="17" y="37" width="1" height="1"/><rect x="18" y="37" width="1" height="1"/><rect x="19" y="37" width="1" height="1"/><rect x="23" y="37" width="1" height="1"/><rect x="24" y="37" width="1" height="1"/><rect x="26" y="37" width="1" height="1"/><rect x="32" y="37" width="1" height="1"/><rect x="34" y="37" width="1" height="1"/><rect x="36" y="37" width="1" height="1"/><rect x="38" y="37" width="1" height="1"/><rect x="4" y="38" width="1" height="1"/><rect x="6" y="38" width="1" height="1"/><rect x="7" y="38" width="1" height="1"/><rect x="8" y="38" width="1" height="1"/><rect x="10" y="38" width="1" height="1"/><rect x="12" y="38" width="1" height="1"/><rect x="16" y="38" width="1" height="1"/><rect x="18" y="38" width="1" height="1"/><rect x="19" y="38" width="1" height="1"/><rect x="20" y="38" width="1" height="1"/><rect x="21" y="38" width="1" height="1"/><rect x="22" y="38" width="1" height="1"/><rect x="23" y="38" width="1" height="1"/><rect x="25" y="38" width="1" height="1"/><rect x="27" y="38" width="1" height="1"/><rect x="28" y="38" width="1" height="1"/><rect x="29" y="38" width="1" height="1"/><rect x="32" y="38" width="1" height="1"/><rect x="33" y="38" width="1" height="1"/><rect x="35" y="38" width="1" height="1"/><rect x="40" y="38" width="1" height="1"/><rect x="4" y="39" width="1" height="1"/><rect x="10" y="39" width="1" height="1"/><rect x="16" y="39" width="1" height="1"/><rect x="17" y="39" width="1" height="1"/><rect x="20" y="39" width="1" height="1"/><rect x="22" y="39" width="1" height="1"/><rect x="23" y="39" width="1" height="1"/><rect x="25" y="39" width="1" height="1"/><rect x="27" y="39" width="1" height="1"/><rect x="30" y="39" width="1" height="1"/><rect x="31" y="39" width="1" height="1"/><rect x="32" y="39" width="1" height="1"/><rect x="33" y="39" width="1" height="1"/><rect x="34" y="39" width="1" height="1"/><rect x="36" y="39" width="1" height="1"/><rect x="40" y="39" width="1" height="1"/><rect x="4" y="40" width="1" height="1"/><rect x="5" y="40" width="1" height="1"/><rect x="6" y="40" width="1" height="1"/><rect x="7" y="40" width="1" height="1"/><rect x="8" y="40" width="1" height="1"/><rect x="9" y="40" width="1" height="1"/><rect x="10" y="40" width="1" height="1"/><rect x="13" y="40" width="1" height="1"/><rect x="15" y="40" width="1" height="1"/><rect x="16" y="40" width="1" height="1"/><rect x="17" y="40" width="1" height="1"/><rect x="23" y="40" width="1" height="1"/><rect x="26" y="40" width="1" height="1"/><rect x="27" y="40" width="1" height="1"/><rect x="29" y="40" width="1" height="1"/><rect x="30" y="40" width="1" height="1"/><rect x="33" y="40" width="1" height="1"/><rect x="34" y="40" width="1" height="1"/><rect x="35" y="40" width="1" height="1"/><rect x="36" y="40" width="1" height="1"/><rect x="38" y="40" width="1" height="1"/><rect x="39" y="40" width="1" height="1"/><rect x="40" y="40" width="1" height="1"/></g>
  <rect x="18.5" y="18.5" width="8" height="8" rx="1.4" fill="#ffffff"/>
  <g transform="translate(19 19) scale(0.2916666666666667)" shape-rendering="auto">
    <path fill="#ef6c33" fill-rule="evenodd" d="M12 20.4C6.6 16 4 12.8 4 9.6 4 7.1 5.9 5.3 8.3 5.3c1.5 0 2.8.7 3.7 1.9.9-1.2 2.2-1.9 3.7-1.9 2.4 0 4.3 1.8 4.3 4.3 0 3.2-2.6 6.4-8 10.8zM12 16.4c-1.45 0-2.5-.95-2.5-2.35 0-.95.5-1.7 1.05-2.5.55-.8 1.05-1.75.85-2.95 1.15 1.05 1.75 2.2 1.6 3.4.6-.3.95-.85 1-1.65.5 1.1.5 2.5.5 3.7 0 1.4-1.05 2.35-2.5 2.35z"/>
  </g>
</svg>