<svg xmlns="http://www.w3.org/2000/svg" viewBox="0 0 24 24">
  <defs>
    <linearGradient id="hearth-flame" x1="0" y1="0" x2="0" y2="1">
      <stop offset="0" stop-color="#f7e2a3"/>
      <stop offset="0.55" stop-color="#d4ad54"/>
      <stop offset="1" stop-color="#b6892b"/>
    </linearGradient>
  </defs>
  <!-- deep "night" rounded tile so the gold flame reads on any browser theme -->
  <rect width="24" height="24" rx="5" fill="#14342b"/>
  <!-- outer flame (matches the wordmark in src/components/logo.tsx) -->
  <path fill="url(#hearth-flame)" d="M12 2c.7 3.2-1.6 4.8-3 6.5C7.4 10.4 6 12.2 6 14.8 6 18.2 8.7 21 12 21s6-2.8 6-6.2c0-2.1-1-3.7-2.2-5.2-.6 2-1.9 2.6-2.6 2.2C14.3 11 15 8.6 12 2z"/>
  <!-- brighter inner ember -->
  <path fill="#fdf4d6" opacity="0.9" d="M12.1 12.4c.45 1.2-.8 1.8-.8 3 0 1 .8 1.8 1.7 1.8s1.6-.85 1.35-1.9c-.2-.9-1.1-1.4-1.3-2.5-.3.8-.62.8-.92-.4z"/>
</svg>
