<svg xmlns="http://www.w3.org/2000/svg" viewBox="0 0 24 24">
  <!-- Favicon: the heart-flame (peach) on the deep juniper tile — Clementine &
       Juniper identity, chosen 2026-07-10. Reads on light and dark browser chrome. -->
  <rect width="24" height="24" rx="5.5" fill="#2f5d4c"/>
  <path fill="#f7c5a5" fill-rule="evenodd" clip-rule="evenodd" transform="translate(1.9 1.9) scale(0.84)" d="M12 20.4C6.6 16 4 12.8 4 9.6 4 7.1 5.9 5.3 8.3 5.3c1.5 0 2.8.7 3.7 1.9.9-1.2 2.2-1.9 3.7-1.9 2.4 0 4.3 1.8 4.3 4.3 0 3.2-2.6 6.4-8 10.8zM12 15.8c1.3 0 2.3-.9 2.3-2.2 0-1.4-1.2-2-2.3-3.9-1.1 1.9-2.3 2.5-2.3 3.9 0 1.3 1 2.2 2.3 2.2z"/>
</svg>
